<svg width="1440" height="390" viewBox="0 0 1440 390" fill="none" xmlns="http://www.w3.org/2000/svg">
<g clip-path="url(#clip0)">
<rect width="1440" height="390" fill="#1A1A1A"/>
<path d="M203 445C217.002 -52.502 1581.18 940.33 1323.65 0" stroke="white" stroke-opacity="0.8" stroke-dasharray="10 10"/>
<path d="M217 16.5L1020.5 82.5L641.928 0" stroke="#00B6E0" stroke-opacity="0.5" stroke-dasharray="10 10"/>
<circle cx="1045" cy="82" r="19" stroke="#8CD9EB" stroke-width="4"/>
<circle cx="1212.5" cy="179.5" r="107.5" stroke="#00B6E0" stroke-width="20"/>
<path d="M1025.83 224.533L1142.71 224.533L1084.27 325.754L1025.83 224.533Z" fill="#CE0000"/>
<path d="M1013.27 401.085L923.37 245.368L1103.18 245.368L1013.27 401.085Z" stroke="#CE0000" stroke-width="4"/>
<rect x="1266" y="335" width="46" height="175" transform="rotate(-30 1266 335)" fill="#007BBF"/>
<rect x="1235.73" y="330.732" width="42" height="171" transform="rotate(-30 1235.73 330.732)" stroke="#8CD9EB" stroke-width="4"/>
<rect x="1342" y="31.8345" width="25.2218" height="25.2218" transform="rotate(-45 1342 31.8345)" fill="#FFB800"/>
</g>
<defs>
<clipPath id="clip0">
<rect width="1440" height="390" fill="white"/>
</clipPath>
</defs>
</svg>
