<svg width="1440" height="618" viewBox="0 0 1440 618" fill="none" xmlns="http://www.w3.org/2000/svg">
<path d="M-21 617C-3.6343 -98.5085 1688.28 1329.38 1368.88 -23" stroke="#CCCCCC" stroke-dasharray="10 10"/>
<path fill-rule="evenodd" clip-rule="evenodd" d="M167.576 584C167.576 588.197 164.16 591.6 159.947 591.6C155.734 591.6 152.318 588.197 152.318 584C152.318 579.803 155.734 576.4 159.947 576.4C164.16 576.4 167.576 579.803 167.576 584ZM174 584C174 591.732 167.708 598 159.947 598C153.287 598 147.708 593.384 146.26 587.188L-38 586.8L-37.9873 580.8L146.178 581.188C147.484 574.804 153.153 570 159.947 570C167.708 570 174 576.268 174 584Z" fill="#FFB800"/>
<path fill-rule="evenodd" clip-rule="evenodd" d="M379 207.606C374.803 207.606 371.4 204.207 371.4 200.013C371.4 195.82 374.803 192.42 379 192.42C383.197 192.42 386.6 195.82 386.6 200.013C386.6 204.207 383.197 207.606 379 207.606ZM379 214C371.268 214 365 207.738 365 200.013C365 193.384 369.616 187.832 375.812 186.391L376.2 3L382.2 3.01267L381.812 186.309C388.196 187.609 393 193.251 393 200.013C393 207.738 386.732 214 379 214Z" fill="#00B6E0"/>
<circle cx="93.5" cy="413.5" r="9" stroke="#FF422E" stroke-width="7"/>
<rect x="1153" y="178.834" width="25.2218" height="25.2218" transform="rotate(-45 1153 178.834)" fill="#FFB800"/>
<path fill-rule="evenodd" clip-rule="evenodd" d="M1273.39 330C1273.39 325.803 1276.79 322.4 1280.99 322.4C1285.18 322.4 1288.58 325.803 1288.58 330C1288.58 334.197 1285.18 337.6 1280.99 337.6C1276.79 337.6 1273.39 334.197 1273.39 330ZM1267 330C1267 322.268 1273.26 316 1280.99 316C1287.62 316 1293.17 320.616 1294.61 326.812L1478 327.2L1477.99 333.2L1294.69 332.812C1293.39 339.196 1287.75 344 1280.99 344C1273.26 344 1267 337.732 1267 330Z" fill="#CE0000"/>
<circle cx="806" cy="168" r="19" stroke="#8CD9EB" stroke-width="4"/>
<path d="M-32 92.5L771.5 158.5L392.928 76" stroke="#00B6E0" stroke-opacity="0.5" stroke-dasharray="10 10"/>
</svg>
